<?xml version="1.0" standalone="no"?>
<!DOCTYPE svg PUBLIC "-//W3C//DTD SVG 20010904//EN"
 "http://www.w3.org/TR/2001/REC-SVG-20010904/DTD/svg10.dtd">
<svg version="1.0" xmlns="http://www.w3.org/2000/svg"
 width="1168.000000pt" height="1168.000000pt" viewBox="0 0 1168.000000 1168.000000"
 preserveAspectRatio="xMidYMid meet">
<metadata>
Created by potrace 1.14, written by Peter Selinger 2001-2017
</metadata>
<g transform="translate(0.000000,1168.000000) scale(0.100000,-0.100000)"
fill="#000000" stroke="none">
<path d="M6812 11504 c-18 -20 -32 -38 -32 -40 0 -2 -8 -12 -17 -23 -34 -36
-69 -76 -108 -126 -22 -27 -51 -61 -65 -75 -14 -14 -45 -50 -69 -80 -25 -30
-51 -62 -58 -70 -7 -8 -32 -38 -55 -66 -105 -124 -134 -159 -150 -176 -10 -10
-18 -20 -18 -23 0 -2 -10 -15 -22 -28 -28 -29 -72 -80 -115 -133 -17 -21 -40
-48 -50 -59 -10 -11 -52 -61 -93 -110 -41 -50 -77 -92 -80 -95 -3 -3 -39 -45
-80 -95 -41 -49 -79 -95 -85 -101 -5 -6 -28 -32 -50 -59 -22 -27 -50 -59 -62
-72 -12 -12 -27 -31 -35 -41 -7 -11 -34 -43 -59 -73 -146 -169 -177 -206 -195
-228 -23 -28 -138 -165 -199 -236 -23 -27 -71 -84 -105 -125 -34 -41 -65 -77
-69 -80 -3 -3 -24 -27 -46 -55 -21 -27 -47 -57 -57 -66 -10 -9 -18 -19 -18
-23 0 -3 -8 -14 -17 -24 -10 -10 -36 -40 -58 -66 -22 -27 -45 -54 -51 -60 -5
-6 -37 -42 -69 -81 -166 -196 -220 -261 -230 -271 -5 -6 -26 -30 -45 -54 -19
-24 -47 -57 -61 -74 -15 -17 -44 -52 -66 -77 -21 -25 -44 -52 -51 -60 -7 -8
-22 -25 -33 -39 -12 -14 -37 -45 -57 -69 -21 -24 -42 -49 -47 -55 -6 -6 -50
-58 -99 -116 -48 -58 -91 -104 -94 -103 -3 2 -7 126 -8 275 -1 150 -5 550 -9
888 -3 338 -6 649 -7 690 l0 75 -23 -50 c-13 -27 -63 -142 -110 -255 -48 -113
-93 -218 -100 -235 -47 -106 -145 -343 -145 -353 0 -7 -4 -12 -8 -12 -4 0 -14
-20 -21 -45 -7 -25 -17 -45 -23 -45 -5 0 -7 -4 -3 -9 3 -5 1 -12 -4 -15 -5 -3
-12 -17 -15 -31 -4 -14 -17 -49 -30 -78 -22 -50 -69 -160 -86 -202 -5 -11 -17
-40 -28 -65 -46 -103 -112 -259 -112 -264 0 -3 -13 -33 -29 -68 -55 -119 -174
-403 -174 -415 0 -7 -4 -13 -9 -13 -4 0 -8 -5 -8 -10 0 -6 -8 -29 -19 -53 -10
-23 -29 -67 -41 -97 -12 -30 -30 -73 -40 -95 -10 -22 -30 -70 -46 -107 -15
-37 -30 -65 -33 -63 -2 3 -5 26 -6 52 -2 27 -6 82 -10 123 -3 41 -8 104 -11
140 -18 257 -26 359 -34 410 -1 8 -8 -7 -15 -35 -7 -27 -20 -77 -30 -110 -9
-33 -18 -67 -20 -75 -2 -8 -17 -64 -34 -125 -18 -60 -34 -123 -37 -139 -2 -16
-9 -36 -13 -45 -5 -9 -11 -30 -14 -48 -3 -17 -8 -36 -11 -41 -3 -5 -8 -24 -11
-42 -3 -19 -11 -40 -17 -47 -6 -7 -8 -13 -5 -13 3 0 -6 -39 -19 -87 -14 -49
-27 -95 -29 -103 -2 -8 -13 -51 -25 -95 -12 -44 -23 -84 -24 -90 -2 -5 -8 -30
-15 -55 -8 -25 -15 -52 -16 -60 -2 -8 -4 -15 -5 -15 -1 0 -3 -7 -5 -15 -1 -8
-10 -42 -20 -75 -9 -33 -25 -94 -36 -135 -20 -77 -36 -134 -46 -160 -3 -8 -7
-22 -8 -30 -1 -8 -10 -42 -19 -75 -9 -33 -19 -68 -21 -79 -2 -10 -12 -44 -21
-75 -31 -108 -32 -105 28 -73 29 15 67 33 83 40 l30 12 -25 -20 c-14 -11 -47
-40 -74 -63 -27 -23 -58 -48 -68 -55 -17 -13 -26 -44 -10 -40 9 2 106 -39 322
-134 51 -23 93 -41 100 -43 3 0 28 -11 57 -24 42 -19 55 -30 69 -64 50 -120
78 -213 90 -307 20 -150 3 -245 -62 -357 -30 -50 -54 -95 -54 -99 0 -8 -68
-113 -80 -124 -13 -12 -77 -106 -83 -123 -3 -9 -11 -17 -16 -17 -5 0 -12 -7
-15 -16 -5 -14 3 -15 76 -9 46 4 86 9 90 12 8 4 -3 -31 -21 -72 -11 -24 -54
-142 -75 -206 -12 -36 -38 -133 -51 -184 -1 -5 -4 -17 -7 -25 -8 -20 -38 -167
-43 -205 -3 -16 -8 -48 -11 -70 -4 -22 -8 -49 -10 -60 -2 -19 -8 -71 -20 -160
-2 -22 -7 -67 -9 -100 -2 -33 -5 -60 -5 -60 -3 0 -13 -329 -10 -360 0 -6 3 -6
8 0 10 14 134 87 139 82 2 -3 6 -17 9 -33 3 -16 10 -47 16 -69 6 -22 11 -44
12 -50 1 -5 5 -16 9 -22 5 -7 6 -13 2 -13 -3 0 0 -10 7 -22 7 -13 13 -25 13
-28 14 -87 176 -371 278 -489 88 -99 263 -261 284 -261 6 0 13 -4 15 -9 3 -8
97 -71 128 -84 8 -4 29 -16 45 -26 105 -68 314 -171 435 -215 41 -15 84 -31
95 -36 42 -18 213 -69 285 -86 8 -1 47 -10 85 -19 67 -15 135 -27 163 -28 6 0
12 -4 13 -9 6 -51 0 -60 -153 -215 -171 -172 -220 -223 -318 -333 -36 -39 -78
-86 -95 -104 -16 -18 -52 -57 -78 -87 -27 -30 -59 -66 -72 -80 -17 -18 -51
-33 -122 -53 -113 -31 -127 -35 -193 -51 -8 -2 -16 -4 -17 -5 -3 -3 -3 -3 -53
-14 -19 -5 -39 -11 -45 -14 -5 -3 -16 -7 -25 -8 -8 -1 -37 -7 -65 -14 -27 -6
-59 -13 -70 -15 -69 -10 -169 -40 -197 -58 -18 -12 -36 -36 -41 -52 -6 -18
-31 -48 -64 -74 -37 -30 -63 -60 -79 -95 -22 -48 -31 -105 -18 -119 3 -3 36
16 72 41 123 87 170 116 327 202 64 34 228 98 275 106 8 2 28 6 45 10 l29 7
-39 -34 c-61 -53 -68 -61 -101 -114 -35 -55 -45 -82 -50 -131 -2 -25 0 -32 12
-27 8 3 14 9 14 14 0 13 96 105 145 139 139 96 271 105 402 28 18 -11 33 -15
33 -10 0 6 -4 12 -8 14 -5 1 -22 31 -40 66 -32 66 -49 153 -35 188 8 22 57 82
128 159 22 23 76 83 120 131 138 153 524 536 534 530 13 -9 41 22 35 38 -4 12
8 13 68 9 168 -11 430 -5 588 13 88 11 83 13 85 -31 6 -121 53 -206 138 -249
l44 -22 -28 -50 c-87 -150 -240 -487 -331 -724 -35 -92 -77 -178 -78 -158 0 4
-17 1 -37 -6 -21 -7 -56 -11 -78 -9 -67 7 -238 7 -275 0 -58 -11 -173 -73
-222 -121 -46 -45 -113 -134 -106 -141 2 -3 29 13 58 34 30 21 80 47 110 58
54 21 120 36 120 28 0 -2 -39 -29 -87 -61 -110 -71 -207 -170 -245 -249 l-28
-60 24 -3 c16 -2 47 11 86 37 34 23 66 41 71 41 5 0 9 5 9 10 0 6 3 9 8 8 4
-1 18 5 32 14 47 30 311 170 330 174 5 1 23 8 103 43 26 11 49 21 52 21 3 0 7
1 10 1 3 1 8 2 13 3 4 1 30 9 57 18 93 31 219 45 321 36 6 -1 10 -24 11 -52 0
-67 8 -98 45 -176 28 -59 40 -66 48 -28 1 4 6 22 11 40 9 31 14 49 24 88 2 8
4 15 5 15 1 0 4 11 8 25 11 44 5 117 -12 142 -32 48 -157 97 -256 100 -16 1
-30 3 -30 6 0 14 53 158 61 166 5 6 9 15 9 22 0 6 10 33 22 60 12 27 21 52 20
57 -1 4 2 7 8 7 5 0 10 7 10 15 0 28 181 400 253 518 34 58 35 58 50 37 l15
-22 33 33 c32 33 80 124 88 169 11 60 1 235 -14 260 -2 3 4 6 13 7 18 1 37 6
62 16 22 8 159 48 165 47 3 0 22 6 42 14 21 8 89 29 151 47 61 18 112 36 112
40 0 3 -25 27 -56 53 -63 51 -66 42 31 79 71 27 80 30 105 34 51 10 193 6 215
-6 6 -3 15 -6 20 -7 36 -6 188 -88 407 -219 160 -97 252 -150 296 -172 17 -9
32 -20 32 -25 0 -4 5 -8 10 -8 6 0 56 -27 112 -61 56 -33 122 -72 147 -85 25
-14 56 -32 69 -41 l23 -16 -15 34 c-31 71 -86 217 -86 228 0 8 6 9 18 2 9 -5
20 -9 25 -10 4 -1 8 -1 10 -2 1 0 9 -2 17 -4 8 -1 53 -13 100 -25 94 -24 110
-28 159 -36 18 -3 43 -8 55 -10 11 -3 35 -7 51 -10 17 -3 55 -9 85 -14 176
-29 450 -32 620 -6 65 10 108 20 122 27 9 5 28 10 42 11 15 1 26 6 26 10 0 4
7 8 15 8 8 0 37 10 64 22 l50 21 -55 39 c-30 21 -59 38 -64 38 -4 0 -10 3 -12
8 -2 6 -74 57 -136 97 -8 6 -26 18 -38 29 -13 10 -32 24 -43 30 -22 11 -172
113 -297 201 -39 28 -78 55 -87 60 -56 35 -293 200 -295 207 -2 4 -9 8 -16 8
-7 0 -21 8 -32 17 -34 30 -83 63 -94 63 -5 0 -10 4 -10 9 0 5 -9 13 -20 16
-11 3 -26 13 -34 20 -8 8 -56 43 -108 77 -51 35 -94 66 -96 71 -2 4 -10 7 -17
7 -7 0 -15 3 -17 8 -5 10 -66 52 -77 52 -5 0 -11 4 -13 8 -1 5 -39 33 -83 62
-44 29 -81 57 -83 62 -2 4 -10 8 -18 8 -8 0 -14 3 -14 8 0 4 -9 12 -19 17 -11
6 -59 37 -108 71 -48 33 -117 81 -153 105 -36 24 -69 47 -75 52 -37 29 -127
87 -135 87 -4 0 -10 4 -12 8 -1 4 -59 46 -128 93 -69 46 -134 92 -144 102 -11
9 -24 17 -28 17 -5 0 -14 5 -21 11 -10 8 -215 151 -291 202 -10 6 -28 19 -40
28 -11 8 -84 58 -161 110 -77 51 -145 98 -151 104 -6 5 -76 54 -155 107 -79
53 -170 115 -202 137 -31 23 -62 41 -67 41 -6 0 -10 4 -10 8 0 5 -12 15 -27
23 -16 8 -30 17 -33 20 -3 4 -41 31 -85 60 -44 29 -82 56 -85 59 -3 3 -26 19
-52 35 -27 17 -48 33 -48 38 0 4 -6 7 -13 7 -7 0 -22 8 -33 18 -10 9 -47 35
-81 57 -35 22 -63 43 -63 48 0 4 -5 7 -10 7 -6 0 -16 5 -23 10 -7 6 -20 17
-31 24 -18 12 -16 15 25 42 24 17 87 60 139 96 52 36 145 100 205 141 61 42
115 80 122 86 7 6 17 11 23 11 5 0 10 4 10 8 0 5 10 14 23 19 12 6 31 18 42
27 43 34 267 186 275 186 4 0 10 4 12 8 2 5 62 49 133 98 72 49 164 112 205
141 41 28 126 87 189 130 63 43 119 83 126 88 6 6 18 15 28 20 21 13 189 128
202 138 6 5 73 52 150 105 77 52 142 99 143 104 2 4 8 8 12 8 8 0 170 108 205
137 6 4 37 26 70 48 33 22 65 44 70 48 6 5 53 37 105 73 94 65 95 70 1 44 -25
-6 -54 -13 -65 -15 -12 -1 -28 -5 -36 -8 -8 -4 -26 -9 -40 -11 -48 -9 -70 -15
-78 -19 -4 -3 -23 -8 -42 -11 -19 -3 -89 -20 -155 -36 -159 -41 -154 -39 -200
-50 -56 -12 -74 -16 -125 -30 -25 -7 -53 -14 -63 -15 -9 -2 -45 -11 -80 -20
-34 -10 -71 -18 -82 -20 -11 -1 -20 -3 -20 -4 0 -2 -9 -4 -20 -6 -11 -2 -58
-14 -105 -25 -47 -12 -93 -23 -103 -25 -10 -2 -26 -6 -35 -9 -9 -3 -28 -7 -42
-10 -14 -3 -72 -17 -130 -31 -58 -15 -112 -28 -120 -30 -8 -2 -44 -11 -80 -20
-36 -9 -74 -18 -85 -20 -11 -1 -27 -5 -35 -8 -25 -11 -112 -28 -117 -24 -2 3
8 8 22 11 14 4 51 18 83 32 31 15 71 32 87 39 17 7 46 20 65 28 239 105 253
111 263 109 4 -1 7 3 7 8 0 6 6 10 14 10 7 0 49 16 92 35 83 37 110 49 159 70
31 13 51 21 125 54 71 31 421 182 457 197 18 8 36 15 40 15 5 0 14 5 21 11 6
6 12 7 12 2 0 -5 4 -4 8 1 4 6 43 26 87 44 94 40 182 78 210 91 111 50 155 68
155 64 0 -2 10 2 23 10 12 8 67 33 122 56 55 23 124 53 153 66 29 13 80 35
115 50 34 14 76 31 92 39 58 26 125 54 130 54 3 0 18 7 33 14 32 17 30 16 372
164 146 62 279 120 295 127 17 8 95 42 175 76 80 34 168 73 197 86 28 13 54
24 56 24 10 0 157 71 157 76 0 3 -3 3 -7 1 -5 -3 -37 -8 -73 -12 -36 -3 -72
-8 -80 -10 -8 -2 -46 -7 -84 -10 -38 -3 -72 -7 -75 -9 -3 -2 -40 -7 -81 -11
-41 -4 -82 -8 -90 -10 -8 -1 -44 -6 -80 -10 -36 -4 -72 -9 -80 -10 -8 -1 -46
-6 -83 -10 -37 -3 -76 -8 -85 -10 -25 -4 -111 -15 -161 -20 -24 -3 -60 -7 -80
-10 -20 -2 -56 -7 -81 -10 -115 -13 -137 -16 -170 -21 -41 -6 -96 -12 -165
-19 -45 -5 -80 -10 -155 -20 -14 -2 -50 -6 -80 -10 -77 -8 -113 -13 -206 -25
-45 -6 -103 -13 -130 -16 -27 -3 -60 -7 -74 -9 -14 -1 -52 -6 -85 -10 -33 -3
-71 -8 -85 -10 -14 -2 -52 -7 -85 -11 -33 -3 -67 -7 -75 -9 -8 -1 -44 -6 -80
-10 -36 -4 -74 -9 -85 -11 -10 -2 -49 -6 -85 -10 -36 -3 -76 -7 -90 -10 -42
-7 -103 -15 -145 -18 -22 -3 -60 -7 -85 -11 -25 -3 -59 -8 -77 -9 -17 -2 -36
-7 -42 -10 -6 -4 -11 -1 -11 6 0 7 32 36 72 63 39 28 76 55 82 60 15 14 226
165 231 165 2 0 14 9 27 20 12 11 64 50 113 86 50 36 101 74 115 84 14 10 86
63 160 117 138 100 185 135 207 153 7 5 16 10 22 10 5 0 11 3 13 8 3 6 135
106 188 142 13 8 35 24 49 36 14 11 100 74 191 140 91 65 167 122 168 126 2 5
11 8 20 8 8 0 12 3 9 6 -6 6 -58 -10 -132 -41 -30 -13 -61 -24 -70 -25 -3 0
-26 -10 -52 -21 -27 -11 -113 -45 -193 -76 -80 -30 -158 -61 -175 -69 -61 -26
-190 -74 -202 -74 -7 0 -13 -4 -13 -10 0 -5 -3 -9 -7 -8 -5 0 -17 -2 -28 -7
-11 -4 -56 -21 -100 -38 -44 -16 -93 -35 -110 -42 -16 -7 -68 -28 -115 -45
-92 -35 -118 -45 -152 -60 -32 -13 -188 -73 -218 -83 -3 -1 -57 -22 -120 -48
-63 -26 -117 -45 -118 -44 -2 2 17 43 42 92 25 49 46 94 46 100 0 6 3 13 8 15
4 2 44 79 90 171 45 93 77 165 70 161 -7 -5 -50 -35 -96 -69 -46 -33 -96 -69
-112 -80 -15 -11 -56 -40 -90 -65 -35 -25 -84 -60 -109 -78 -25 -18 -57 -41
-71 -50 -14 -9 -31 -22 -38 -29 -7 -7 -26 -20 -42 -30 -17 -9 -30 -21 -30 -25
0 -4 -5 -8 -11 -8 -6 0 -17 -6 -24 -12 -29 -26 -44 -38 -49 -38 -5 0 -111 -76
-161 -115 -128 -99 -465 -331 -468 -322 -4 13 9 46 80 197 27 58 58 123 68
145 10 22 33 71 52 109 18 38 33 75 33 83 0 7 5 13 10 13 6 0 10 6 10 13 0 7
11 37 25 65 14 29 25 56 25 62 0 5 5 10 10 10 6 0 10 5 10 12 0 11 36 90 151
337 27 57 49 105 49 106 0 2 22 50 49 107 27 56 75 159 106 228 32 69 77 167
101 218 24 52 44 95 44 97 0 2 25 56 55 120 31 65 65 139 77 164 11 25 33 71
48 102 15 31 33 72 39 92 7 21 17 37 22 37 5 0 9 5 9 12 0 11 38 97 122 277
22 46 53 113 69 148 17 36 45 98 63 137 19 39 50 105 69 146 19 41 45 98 58
125 12 28 24 52 24 55 1 3 17 37 35 75 18 39 34 72 35 75 0 3 13 30 27 60 14
30 39 84 56 120 16 36 41 89 56 119 14 30 26 61 26 68 0 7 5 13 10 13 6 0 10
5 10 11 0 11 48 119 91 203 11 21 18 40 16 42 -2 2 -18 -12 -35 -32z"/>
</g>
</svg>
