<svg xmlns="http://www.w3.org/2000/svg" width="47" height="73" viewBox="0 0 48 73" fill="none"><path d="M12.532 65.936c1.07-1.152 2.33-2.453 3.08-3.064-.21-.018-.544-.06-.906-.114-.783.714-1.783 1.756-2.678 2.712a96.663 96.663 0 0 0-2.07 2.298c-.013.01-.019.028-.034.041-.74.204-1.999.55-2.835.778-1.24.344-2.354.26-2.354 1.07 0 0-1.284.69-.983 1.715 0 0 2.576-2.057 4.78-2.405 0 0-1.347.875-1.225 2.062 0 0 1.815-2.714 3.933-1.068 0 0-.944-1.283-.55-1.989a110.73 110.73 0 0 1 1.842-2.036zm-4.08-32.048a.838.838 0 0 1-.346.068.955.955 0 0 1-.88-.6c-.014-.03-.032-.067-.038-.105l-.28.093c.235.684.943 1.06 1.581.838.16-.057.304-.142.415-.252.352-.33.494-.867.319-1.377l-.641.22c.04.093.068.195.068.305 0 .094-.017.18-.054.262l.292.178c-.05.077-.113.154-.188.217a.78.78 0 0 1-.248.153zm25.956-2.078L21.74 34.899v-.014l.004.014 24.744-10.705-20.392 2.497L37.01 18.72l-11.697 4.566 1.767-3.544-8.368 6.025-.07-.127L30.504 0l-19.29 22.827-.121-12.446-7.078 16.635-.368-4.903L.16 34.873l.006-.003v.003s.47-.347 1.102-.538l.153-.04c.006 0 .013-.006.02-.006.051-.01.102-.023.153-.031.006 0 .014-.006.024-.006.052-.009.102-.016.16-.02v-.005c.055-.005.108-.007.16-.012h.033c.051-.005.106-.005.164 0 .004 0 .007 0 .02.005.047 0 .095.002.146.013a1.21 1.21 0 0 1 .218.04c.053.014.108.029.166.049 1.193.431 2.208 0 2.208 0s1.123.72 1.123 1.325h-.002v.003s-1.478.087-1.478-.568c0 0-1.891-.671-4.536.309l5.578 2.398c-.003-.026-.297-1.064.025-1.425.102-.125.281-.169.561-.074.102.037.176.028.222-.017.434-.447-1.67-4.331-1.67-4.331s-1.889-.184-3.523 1.526a4.94 4.94 0 0 0-.327.367v-.005.006a7.189 7.189 0 0 1 1.581-1.867A5.388 5.388 0 0 1 4.431 30.9c.217-.52-.058-.181.388-.454.004 0 .004-.005.004-.005.21-1.37.985-4.896 3.66-7.913.18-.2.364-.403.56-.594 0 0-.685 1.288-.685 2.185.02-.023.697-1.038 1.632-1.967v-.004l-.025.04c-.173.372-1.449 3.094-1.315 3.889.004.007.006.012.006.02l2.578-2.363-.01.008c-.075.102-2.422 3.273-2.653 4.36v.008l3.904-2.788-.004.005c-.013.023-.492.69-.693 1.056-.143.262-.164.35-.164.378l.007.02 2.101-.9s-.09.109-.238.268l-.782.795-.193.204-1.421 1.436-.027.034-1.082 1.099-.694.706s-.567.59-.635.897c-.068.3.252.487.252.487h-.004c.29.16.523.41.66.709.075.18.118.377.118.588 0 .413-.17.788-.453 1.06a1.567 1.567 0 0 1-1.1.443c-.393 0-.741-.143-1.013-.37.047.063.815 1.03 2.226.279l1.744-1.271.075-.06 1.802-1.317c.425.502.827 1.107 1.19 1.792a127.703 127.703 0 0 0-4.72 4.712 61.265 61.265 0 0 0-3.096 3.505l.65-3.054.054-.252s-.003 0-.003.004c-.007.003-.01.003-.016.008 0 .002-.008.007-.008.007-.007.003-.014.003-.018.014a.01.01 0 0 0-.01.01l-.023.012c-.004.003-.007.013-.018.015-.006.004-.016.013-.025.016-.006.01-.012.013-.022.02-.007.007-.013.015-.028.018-.01.01-.016.02-.027.026-.009.008-.02.02-.031.022a.077.077 0 0 1-.029.029c-.015.01-.024.022-.038.031-.01.007-.02.02-.03.03-.014.012-.031.02-.04.037-.018.007-.025.018-.042.026-.01.016-.027.029-.045.044-.009.01-.027.023-.037.036-.017.014-.037.03-.051.049-.014.012-.023.024-.041.033a.23.23 0 0 1-.057.058.184.184 0 0 0-.034.033.421.421 0 0 1-.038.034c0 .004-.003.004-.003.004-.02.018-.04.042-.061.064-.018.011-.031.03-.044.045-.024.019-.042.04-.062.059l-.05.05c-.014.022-.032.037-.041.05-.007.005-.016.015-.024.023 0 .002-.007.008-.014.015l-.037.038-.051.057c-.004.007-.007.013-.014.014l-.02.019a.144.144 0 0 1-.034.04.37.37 0 0 1-.068.074c-.018.026-.038.044-.055.07-.02.025-.047.052-.068.076-.02.025-.039.045-.058.07-.026.03-.047.06-.074.088-.017.023-.038.046-.06.073-.022.031-.046.059-.073.095-.02.018-.037.046-.059.069-.025.038-.053.07-.08.108-.021.027-.038.045-.052.07-.033.044-.068.087-.102.13-.01.018-.028.038-.037.055-.047.065-.098.132-.143.2l-.006.008c-.046.066-.093.132-.137.2a.899.899 0 0 1-.04.062c-.03.05-.067.102-.102.156-.018.026-.03.05-.05.076-.031.052-.063.097-.096.148l-.05.086c-.028.051-.062.103-.095.154-.015.031-.035.061-.051.094-.031.051-.059.104-.093.156-.018.027-.037.064-.055.095-.03.06-.061.11-.093.165-.014.031-.033.065-.05.1-.143.264-.282.537-.425.832v.006l-.718.12c.144-.37.286-.705.44-1.023l-1.17 1.647 1.17-.114c-1 2.299-1.735 5.307-1.735 9.592l.953-.603c.84 4.783 4.783 6.884 4.783 6.884l-.006-.03c2.172 1.422 4.816 2.416 7.73 2.81.405.051.733.081.807.089.002 0 .002 0 .002-.002.053.006.1.015.15.015 1.579.138 3.112.081 4.578-.133a2.43 2.43 0 0 0-.007.169c0 .947.526 1.726 1.197 1.79-1.377 2.344-2.494 5.455-2.497 5.47-.053.143-.163.408-.274.487-.34.077-.367.094-.743.21l.006-.004c-.127-.123-1.215-.327-2.323.09.002.004.002.004.009.01-.627.275-1.238.778-1.661 1.61.45-.364 1.291-.955 1.976-.873-.811.461-2.211 1.342-2.371 2.611 0 0 4.861-3.41 7.258-2.781 0 0-.35.396.477 1.87l.377-1.37c.431-1.33-1.234-1.526-1.934-1.554.003-.01.003-.015.003-.017 0 0 .078-.213.214-.565.412-1.064 1.373-3.418 2.425-5.098a.642.642 0 0 0 .044-.107l-.197-.271c.002 0 .142-.154.218-.267.139-.22.332-.594.336-1.088 0-.388-.095-.878-.372-1.486l.623-.289c.034.08.067.153.1.224l.026.072c.02.05.04.102.057.153.01.023.02.051.029.076.016.056.032.107.05.158.004.015.014.036.018.054l3.558-1.074-.789-.65h-.005l-.035-.034-.018-.014-13.457-12.253c.004 0 .008.007.008.007l-.004-.007a819.797 819.797 0 0 0 15.508 7.364c7.292 3.36 11.91 5.318 14.292 6.294.02.012.042.02.058.028h.004c.346.142.643.261.893.363l1.014.396c.04-.023.088-.035.13-.056L17.594 43.423 34.408 31.81zM15.58 37.56l-4.056 3.084 2.911-6.401v-.005c.463.981.852 2.103 1.149 3.322h-.004zm14.483 22.069.101.486h-.002l4.74 2.796 1.2.697-.656-1.688c3.91 1.153 7.095 1.218 9.213.22l-.002.001c-3.687 1.09-12.828-1.99-14.594-2.512z" fill="#DC0D15"/><path d="M4.536 35.082c0 .654 1.479.568 1.479.568 0-.602-1.122-1.326-1.122-1.326s-1.014.429-2.213 0c-.48-.174-.983-.117-1.411.013C.701 34.717 0 35.395 0 35.395c2.646-.984 4.536-.313 4.536-.313zm9.898-.839-2.911 6.4 4.056-3.084a17.658 17.658 0 0 0-1.145-3.316zm30.244 27.891s-9.111-3.418-31.78-14.445l13.51 12.302h.006c1.21-.502 2.061-.86 3.746.125l-.099-.488c1.762.523 10.938 3.618 14.617 2.506zm-21.936-.869c.276.609.371 1.099.371 1.486a2.058 2.058 0 0 1-.336 1.09 2.44 2.44 0 0 1-.217.265l.404.555c.044-.028.833-.625.833-1.91 0-.5-.12-1.091-.435-1.774l-.62.288zm-8.133 1.476c.643.102 1.229.156 1.229.156l.03-.34s-.574-.05-1.203-.152l-.056.336zm-.462-29.08a10.084 10.084 0 0 0-1.19-1.791l-3.621 2.65c-1.462.773-2.233-.284-2.233-.284.268.23.625.371 1.02.371.86 0 1.55-.677 1.552-1.502 0-.208-.042-.408-.12-.583a1.527 1.527 0 0 0-.66-.713l.007-.002s-.32-.185-.252-.487c.068-.306.635-.896.635-.896l-.004.002 1.78-1.808.026-.032 1.615-1.642.782-.794c.147-.16.234-.264.234-.264l-2.104.897s-.04-.023.164-.4c.203-.372.696-1.06.696-1.06L8.568 28.11c.225-1.094 2.666-4.371 2.666-4.371l-2.579 2.359c-.173-.822 1.335-3.947 1.335-3.947-.95.94-1.632 1.973-1.632 1.973 0-.901.683-2.19.683-2.19-3.131 3.13-4 7.049-4.219 8.507-.453.283-.174-.062-.391.459-2.102.593-3.295 2.468-3.566 2.934 1.705-2.104 3.851-1.894 3.851-1.894s2.564 4.735 1.449 4.353c-1.124-.389-.586 1.495-.586 1.495l-2.097-.904c.346.684 1.026 2.296.636 3.973a12.7 12.7 0 0 0-1.24 2.44l.718-.12c.14-.3.28-.574.42-.836.02-.034.041-.066.056-.1.028-.055.06-.108.093-.163.017-.033.037-.069.055-.1.03-.05.056-.102.089-.152.02-.036.04-.066.054-.097.033-.051.06-.103.095-.15a.734.734 0 0 1 .05-.085c.031-.051.065-.102.096-.151a.408.408 0 0 1 .05-.078c.03-.052.066-.102.103-.153.015-.024.024-.047.04-.066.044-.067.091-.133.137-.197 0-.002.005-.007.005-.01.045-.069.093-.131.138-.196.015-.016.03-.037.043-.056l.098-.133a.656.656 0 0 1 .055-.066 4.52 4.52 0 0 1 .079-.112.426.426 0 0 0 .057-.07l.076-.094c.02-.023.043-.046.06-.071.028-.031.048-.058.071-.087.022-.022.04-.046.059-.069.024-.028.046-.055.071-.079.016-.023.037-.044.055-.065.023-.03.047-.052.063-.077.021-.018.038-.044.058-.062l.065-.067c.017-.024.034-.037.051-.058a.805.805 0 0 0 .065-.068.627.627 0 0 0 .05-.054.383.383 0 0 1 .063-.059c.013-.014.026-.03.044-.045.02-.022.041-.046.06-.064.018-.011.027-.028.041-.037l.092-.093c.018-.009.027-.02.04-.032.014-.018.035-.034.051-.05.01-.012.028-.025.038-.036.017-.014.035-.027.044-.043.018-.008.024-.02.041-.026.01-.017.028-.026.043-.037.009-.01.018-.023.029-.03.014-.01.023-.021.038-.032.009-.003.02-.015.029-.029.01-.001.022-.014.031-.021.011-.006.017-.016.027-.026.015-.003.02-.01.028-.018.01-.008.016-.01.022-.02.008-.003.019-.013.025-.016.01-.002.014-.012.017-.015.007-.005.018-.01.025-.013a.01.01 0 0 1 .009-.01c.004-.01.01-.01.017-.013 0 0 .008-.005.008-.008.006-.004.01-.004.017-.007 0-.004.003-.004.003-.004l-.054.252-.65 3.053c2.465-3.053 6.105-6.596 7.816-8.216zm-7.242-.317.282-.093c.007.038.024.075.038.104.153.373.505.6.88.6.12 0 .236-.018.347-.067a.935.935 0 0 0 .436-.37l-.292-.174a.636.636 0 0 0 .053-.266.78.78 0 0 0-.067-.306l.64-.219c.233.682-.093 1.411-.736 1.632-.638.218-1.347-.153-1.58-.841z" fill="#000"/></svg>