<svg width="62" height="62" fill="none" xmlns="http://www.w3.org/2000/svg"><path d="m54.188 22.68-.034.387.248.298L60.777 31l-6.373 7.635-.25.298.035.386.887 10.086-9.384 2.233-.399.095-.202.357-4.904 8.672-8.8-3.959-.387-.174-.387.175-8.799 3.986-4.903-8.67-.202-.357-.399-.095-9.384-2.233.887-10.116.034-.386-.248-.298L1.223 31l6.376-7.665.247-.297-.034-.386-.887-10.113 9.382-2.205.4-.095.203-.357 4.904-8.673 8.8 3.96.386.173.385-.174 8.8-3.958 4.905 8.7.201.357.4.095 9.384 2.234-.887 10.086z" stroke="#F8F200" stroke-width="1.879"/><path d="m25.285 42.147-2.723-2.722c-1.088-1.09-2.177-1.09-3.266 0l-2.525 2.524 1.09 1.09 2.524-2.525c.363-.363.722-.366 1.079-.01l.01.01-1.901 1.9c-.91.911-.92 1.812-.03 2.703.924.924 1.841.93 2.752.02l2.99-2.99zm-4.633 1.901c-.178-.178-.175-.36.01-.544l1.9-1.901.545.544-1.9 1.901c-.186.185-.37.185-.555 0zm10.127-7.395-1.554 1.554-3.346.08-.545.544 1.634 1.633-1.09 1.09-4.355-4.357 1.089-1.088 1.633 1.633.545-.544.089-3.356 1.544-1.545-.05 4.406 4.406-.05zm-.788-7.923 3.267 3.266-1.634 1.634c-.363.363-.726.363-1.089 0l-2.722-2.723-1.089 1.09 2.723 2.722c1.088 1.089 2.177 1.089 3.266 0l2.178-2.178 1.09 1.089 1.138-1.139-2.178-2.177-.594.593-3.267-3.266-1.089 1.089zm10.694-1.983-1.089 1.089-.465-.465c-.185.937-.541 1.67-1.07 2.197-1.088 1.09-2.177 1.09-3.266 0l-2.821-2.821 1.088-1.089 2.822 2.821c.356.357.72.357 1.089 0 .633-.818.831-1.709.594-2.672L35.24 23.48l1.09-1.089 4.355 4.356zm-2.376-3.564c-.924-.924-.93-1.841-.02-2.752l2.99-2.99 4.356 4.356-1.09 1.09-1.633-1.634-.485.485.268 3-1.416 1.415-.267-3c-.911.911-1.812.921-2.703.03zm2.97-3.564-1.9 1.901c-.185.185-.179.376.02.574.164.165.34.155.524-.03l1.9-1.9-.544-.545z" fill="#F8F200"/></svg>